<svg width="20" height="21" viewBox="0 0 20 21" fill="none" xmlns="http://www.w3.org/2000/svg">
<path d="M9.12709 0H10.8713C11.0263 0 11.1038 0.0775194 11.1038 0.232558V20.6977C11.1038 20.8527 11.0263 20.9302 10.8713 20.9302H9.12709C8.97205 20.9302 8.89453 20.8527 8.89453 20.6977V0.232558C8.89453 0.0775194 8.97205 0 9.12709 0Z" fill="#3980FF"/>
<path d="M0.232558 9.36035H19.7674C19.9225 9.36035 20 9.43787 20 9.59291V11.3371C20 11.4921 19.9225 11.5697 19.7674 11.5697H0.232558C0.0775194 11.5697 0 11.4921 0 11.3371V9.59291C0 9.43787 0.0775194 9.36035 0.232558 9.36035Z" fill="#3980FF"/>
</svg>
